<?xml version="1.0" encoding="utf-8"?>
<!-- Generator: Adobe Illustrator 16.0.4, SVG Export Plug-In . SVG Version: 6.00 Build 0)  -->
<!DOCTYPE svg PUBLIC "-//W3C//DTD SVG 1.1//EN" "http://www.w3.org/Graphics/SVG/1.1/DTD/svg11.dtd">
<svg version="1.1" id="レイヤー_1" xmlns="http://www.w3.org/2000/svg" xmlns:xlink="http://www.w3.org/1999/xlink" x="0px"
	 y="0px" width="674px" height="376px" viewBox="0 0 674 376" enable-background="new 0 0 674 376" xml:space="preserve">
<path fill-rule="evenodd" clip-rule="evenodd" d="M478.269,0c14.742,0,29.488,0,44.231,0c0,0.167,0,0.333,0,0.5
	c-30.398,125.154-60.805,250.346-91.203,375.5c-15.264,0-30.533,0-45.797,0c0-0.166,0-0.334,0-0.5
	C416.42,250.346,447.349,125.154,478.269,0z"/>
<path fill-rule="evenodd" clip-rule="evenodd" fill="#3590BF" d="M147,67.5c0.167,18.665,0.333,37.335,0.5,56
	C98.338,154.997,49.162,186.503,0,218c0-19.831,0-39.669,0-59.5C48.995,128.17,98.005,97.83,147,67.5z"/>
<path fill-rule="evenodd" clip-rule="evenodd" fill="#EC6538" d="M526.5,67.5c49.161,30.33,98.338,60.67,147.5,91
	c-0.166,19.831-0.334,39.669-0.5,59.5c-0.334-0.334-0.667-0.666-1-1c-48.662-31.164-97.339-62.336-146-93.5
	C526.5,104.835,526.5,86.165,526.5,67.5z"/>
<path fill-rule="evenodd" clip-rule="evenodd" fill="#1190BF" d="M98,215c17.665,11.665,35.335,23.335,53,35
	c0,19.831,0,39.669,0,59.5c-31.664-21.498-63.336-43.002-95-64.5C69.999,235.001,84.001,224.999,98,215z"/>
<path fill-rule="evenodd" clip-rule="evenodd" fill="#EC6538" d="M575,215c14.498,9.832,29.002,19.668,43.5,29.5
	c-0.334,0.334-0.667,0.666-1,1c-31.497,21.331-63.003,42.669-94.5,64c0-19.831,0-39.669,0-59.5
	C540.331,238.335,557.668,226.665,575,215z"/>
<text transform="matrix(0.9914 0 0 1 151 220.0195)" font-family="'DFKaiShu-SB-Estd-BF'" font-size="108">H.T.C</text>
</svg>
